<?xml version="1.0" encoding="UTF-8" standalone="no"?><svg width="58" height="58" viewBox="0 0 58 58" fill="none" xmlns="http://www.w3.org/2000/svg"><g style="fill:#bd9e59;fill-opacity:1"><path d="M19.4096 43.3007C20.8269 47.8743 18.0561 51.3184 13.6805 53C14.0711 50.2351 11.9867 47.8819 9.72063 46.3081C7.96497 45.0882 6.33887 43.7625 5.16908 41.9962C3.40182 39.3294 3.66865 36.1874 5.83808 33.8092L2.07541 33.765C2.02321 28.5892 3.71891 23.6539 7.76002 20.0482C5.99469 18.9457 4.02829 19.5499 2 20.4215C2.6574 17.0678 4.02249 13.9046 6.48002 11.6015C10.0377 8.26516 15.0843 7.85533 19.2665 10.5548L17.4722 5C22.8378 6.65086 26.5521 10.9877 27.1535 16.531C27.5846 20.5062 26.9156 24.3697 25.2644 27.9966L29.1121 35.6717L23.2825 41.5344L21.262 37.6305L17.4896 37.6016C17.304 36.2336 17.0874 35.0022 16.4977 33.8458C16.0994 33.0627 15.0611 32.8126 14.3843 33.3186C13.6921 33.8381 13.0057 34.3634 12.4005 34.9156C10.8208 36.3606 10.7087 38.5521 12.0041 40.226C12.9554 41.4555 14.22 42.5388 15.6257 43.3007L19.4077 43.3046L19.4096 43.3007Z" fill="#bd9e59"/><path d="M46.3652 39.5026L46.3845 31.8178C44.42 33.2782 43.6118 35.3119 42.6121 37.5689L38.7528 37.6343L36.7574 41.5613C34.7504 38.7926 33.1649 36.0989 31.9622 33.0415C31.1056 30.8636 30.8929 28.6835 30.9625 26.3554C31.0612 23.0498 31.9699 20.0213 34.1703 17.5392C36.216 15.2303 38.4299 13.085 41.1755 11.5919C45.323 9.33687 49.6386 7.99772 54.4512 6.93947L48.6487 17.976C51.1313 16.4483 53.3491 15.2323 56 14.4838C53.0378 23.246 52.539 32.6509 52.1735 41.5633L42.5174 51.1048L38.6233 45.2537L46.3652 39.5026Z" fill="#bd9e59"/></g></svg>